<svg width="1520" height="1097" viewBox="0 0 1520 1097" fill="none" xmlns="http://www.w3.org/2000/svg">
<g filter="url(#filter0_dd_95:3588)">
<path d="M40 25C40 16.7158 46.7157 10 55 10H1465C1473.28 10 1480 16.7157 1480 25V1012C1480 1020.28 1473.28 1027 1465 1027H55C46.7158 1027 40 1020.28 40 1012V25Z" fill="url(#paint0_linear_95:3588)"/>
</g>
<path d="M1454.11 464.324C1463.44 454.481 1480 461.082 1480 474.641V1012C1480 1020.28 1473.28 1027 1465 1027H955.875C942.706 1027 935.929 1011.24 944.986 1001.68L1454.11 464.324Z" fill="url(#paint1_linear_95:3588)"/>
<path d="M920.5 985.544L1482.48 424.5L1482.48 465.986L963.873 985.544L920.5 985.544Z" fill="white"/>
<defs>
<filter id="filter0_dd_95:3588" x="0" y="0" width="1520" height="1097" filterUnits="userSpaceOnUse" color-interpolation-filters="sRGB">
<feFlood flood-opacity="0" result="BackgroundImageFix"/>
<feColorMatrix in="SourceAlpha" type="matrix" values="0 0 0 0 0 0 0 0 0 0 0 0 0 0 0 0 0 0 127 0" result="hardAlpha"/>
<feOffset dy="30"/>
<feGaussianBlur stdDeviation="20"/>
<feColorMatrix type="matrix" values="0 0 0 0 0.0784314 0 0 0 0 0.145098 0 0 0 0 0.247059 0 0 0 0.08 0"/>
<feBlend mode="normal" in2="BackgroundImageFix" result="effect1_dropShadow_95:3588"/>
<feColorMatrix in="SourceAlpha" type="matrix" values="0 0 0 0 0 0 0 0 0 0 0 0 0 0 0 0 0 0 127 0" result="hardAlpha"/>
<feOffset/>
<feGaussianBlur stdDeviation="0.5"/>
<feColorMatrix type="matrix" values="0 0 0 0 0.0470588 0 0 0 0 0.101961 0 0 0 0 0.294118 0 0 0 0.1 0"/>
<feBlend mode="normal" in2="effect1_dropShadow_95:3588" result="effect2_dropShadow_95:3588"/>
<feBlend mode="normal" in="SourceGraphic" in2="effect2_dropShadow_95:3588" result="shape"/>
</filter>
<linearGradient id="paint0_linear_95:3588" x1="1480" y1="1027" x2="40" y2="10.0001" gradientUnits="userSpaceOnUse">
<stop stop-color="#2E46C5"/>
<stop offset="1" stop-color="#0059A8"/>
</linearGradient>
<linearGradient id="paint1_linear_95:3588" x1="1200.5" y1="437" x2="1200.5" y2="1027" gradientUnits="userSpaceOnUse">
<stop stop-color="#BE4448"/>
<stop offset="1" stop-color="#9D2D3A"/>
</linearGradient>
</defs>
</svg>
