<svg width="1110" height="433" viewBox="0 0 1110 433" fill="none" xmlns="http://www.w3.org/2000/svg">
<mask id="mask0_26:3968" style="mask-type:alpha" maskUnits="userSpaceOnUse" x="0" y="0" width="1110" height="433">
<rect width="1110" height="433" rx="8" fill="#C4C4C4"/>
</mask>
<g mask="url(#mask0_26:3968)">
<rect width="1110" height="433" rx="15.9688" fill="url(#paint0_linear_26:3968)"/>
<path opacity="0.1" d="M988.245 348.567C875.17 198.166 719.338 373.919 595.838 254.894C531.582 192.965 518.551 137.082 472.44 44.7001C442.865 -14.5541 440.046 -24.8696 411.975 -67.2509C383.904 -109.632 333 -158.639 333 -158.639V-314H1662V720.976H1344.87C1344.87 720.976 1175.48 725.861 1094.37 597.601C1045.03 519.592 1046.13 425.559 988.245 348.567Z" fill="white"/>
<path opacity="0.1" d="M1033.74 298.853C920.578 148.387 764.629 363.073 641.036 243.997C576.731 182.041 543.067 -37.5257 524.337 -102.414C514.075 -137.97 498.404 -169.969 472.951 -194.858C447.498 -219.747 378 -208.572 378 -208.572V-364H1708V606.407H1410.39C1410.39 606.407 1201.69 618.852 1133.77 529.709C1074.49 451.912 1091.67 375.878 1033.74 298.853Z" fill="white"/>
</g>
<rect x="660" y="101" width="350" height="52" rx="5" fill="#F7FAFC"/>
<path d="M685.426 125C685.048 122.912 683.378 121.679 681.33 121.679C678.724 121.679 676.835 123.688 676.835 126.909C676.835 130.131 678.724 132.139 681.33 132.139C683.378 132.139 685.048 130.906 685.426 128.818H684.193C683.895 130.23 682.682 130.986 681.33 130.986C679.48 130.986 678.028 129.554 678.028 126.909C678.028 124.264 679.48 122.832 681.33 122.832C682.682 122.832 683.895 123.588 684.193 125H685.426ZM690.362 132.159C692.43 132.159 693.822 130.588 693.822 128.222C693.822 125.835 692.43 124.264 690.362 124.264C688.294 124.264 686.901 125.835 686.901 128.222C686.901 130.588 688.294 132.159 690.362 132.159ZM690.362 131.105C688.791 131.105 688.075 129.753 688.075 128.222C688.075 126.69 688.791 125.318 690.362 125.318C691.933 125.318 692.649 126.69 692.649 128.222C692.649 129.753 691.933 131.105 690.362 131.105ZM695.613 132H696.786V127.227C696.786 126.109 697.602 125.318 698.516 125.318C699.406 125.318 700.028 125.9 700.028 126.77V132H701.221V127.028C701.221 126.044 701.837 125.318 702.911 125.318C703.746 125.318 704.462 125.761 704.462 126.889V132H705.636V126.889C705.636 125.094 704.671 124.264 703.309 124.264C702.215 124.264 701.415 124.766 701.022 125.557H700.942C700.565 124.741 699.898 124.264 698.894 124.264C697.9 124.264 697.164 124.741 696.846 125.557H696.746V124.364H695.613V132ZM707.781 134.864H708.954V130.827H709.054C709.312 131.244 709.809 132.159 711.281 132.159C713.19 132.159 714.522 130.628 714.522 128.202C714.522 125.795 713.19 124.264 711.261 124.264C709.77 124.264 709.312 125.179 709.054 125.577H708.914V124.364H707.781V134.864ZM708.934 128.182C708.934 126.472 709.69 125.318 711.122 125.318C712.613 125.318 713.349 126.571 713.349 128.182C713.349 129.812 712.593 131.105 711.122 131.105C709.71 131.105 708.934 129.912 708.934 128.182ZM719.196 132.159C720.667 132.159 721.164 131.244 721.423 130.827H721.562V132H722.696V124.364H721.522V125.577H721.423C721.164 125.179 720.707 124.264 719.216 124.264C717.287 124.264 715.954 125.795 715.954 128.202C715.954 130.628 717.287 132.159 719.196 132.159ZM719.355 131.105C717.883 131.105 717.127 129.812 717.127 128.182C717.127 126.571 717.863 125.318 719.355 125.318C720.787 125.318 721.542 126.472 721.542 128.182C721.542 129.912 720.767 131.105 719.355 131.105ZM726.181 127.406C726.181 126.074 727.006 125.318 728.13 125.318C729.218 125.318 729.88 126.029 729.88 127.227V132H731.053V127.148C731.053 125.199 730.014 124.264 728.468 124.264C727.314 124.264 726.598 124.781 726.24 125.557H726.141V124.364H725.007V132H726.181V127.406ZM733.679 134.864C734.738 134.864 735.484 134.302 735.926 133.114L739.178 124.384L737.895 124.364L735.787 130.449H735.708L733.6 124.364H732.327L735.151 132.04L734.932 132.636C734.504 133.8 733.977 133.909 733.122 133.69L732.824 134.724C732.943 134.784 733.281 134.864 733.679 134.864ZM752.901 121.818H751.688V129.832H751.588L746.02 121.818H744.827V132H746.06V124.006H746.159L751.707 132H752.901V121.818ZM758.092 132.159C759.564 132.159 760.061 131.244 760.319 130.827H760.459V132H761.592V124.364H760.419V125.577H760.319C760.061 125.179 759.604 124.264 758.112 124.264C756.183 124.264 754.851 125.795 754.851 128.202C754.851 130.628 756.183 132.159 758.092 132.159ZM758.251 131.105C756.78 131.105 756.024 129.812 756.024 128.182C756.024 126.571 756.76 125.318 758.251 125.318C759.683 125.318 760.439 126.472 760.439 128.182C760.439 129.912 759.663 131.105 758.251 131.105ZM763.904 132H765.077V127.227C765.077 126.109 765.893 125.318 766.807 125.318C767.697 125.318 768.319 125.9 768.319 126.77V132H769.512V127.028C769.512 126.044 770.128 125.318 771.202 125.318C772.037 125.318 772.753 125.761 772.753 126.889V132H773.927V126.889C773.927 125.094 772.962 124.264 771.6 124.264C770.506 124.264 769.706 124.766 769.313 125.557H769.233C768.856 124.741 768.189 124.264 767.185 124.264C766.191 124.264 765.455 124.741 765.137 125.557H765.037V124.364H763.904V132ZM779.274 132.159C780.825 132.159 781.958 131.384 782.316 130.23L781.183 129.912C780.884 130.707 780.193 131.105 779.274 131.105C777.896 131.105 776.947 130.215 776.892 128.58H782.436V128.082C782.436 125.239 780.745 124.264 779.154 124.264C777.086 124.264 775.714 125.895 775.714 128.241C775.714 130.588 777.066 132.159 779.274 132.159ZM776.892 127.565C776.972 126.377 777.812 125.318 779.154 125.318C780.427 125.318 781.242 126.273 781.242 127.565H776.892Z" fill="#718096"/>
<rect x="660" y="185" width="350" height="52" rx="5" fill="#F7FAFC"/>
<path d="M677.233 216H683.457V214.906H678.466V211.446H683.06V210.352H678.466V206.912H683.378V205.818H677.233V216ZM689.816 211.088H685.362V212.182H689.816V211.088ZM691.881 216H693.054V211.227C693.054 210.109 693.869 209.318 694.784 209.318C695.674 209.318 696.295 209.9 696.295 210.77V216H697.488V211.028C697.488 210.044 698.105 209.318 699.179 209.318C700.014 209.318 700.73 209.761 700.73 210.889V216H701.903V210.889C701.903 209.094 700.939 208.264 699.577 208.264C698.483 208.264 697.682 208.766 697.29 209.557H697.21C696.832 208.741 696.166 208.264 695.162 208.264C694.167 208.264 693.432 208.741 693.113 209.557H693.014V208.364H691.881V216ZM706.932 216.159C708.404 216.159 708.901 215.244 709.159 214.827H709.298V216H710.432V208.364H709.259V209.577H709.159C708.901 209.179 708.443 208.264 706.952 208.264C705.023 208.264 703.691 209.795 703.691 212.202C703.691 214.628 705.023 216.159 706.932 216.159ZM707.091 215.105C705.619 215.105 704.864 213.812 704.864 212.182C704.864 210.571 705.6 209.318 707.091 209.318C708.523 209.318 709.279 210.472 709.279 212.182C709.279 213.912 708.503 215.105 707.091 215.105ZM712.744 216H713.917V208.364H712.744V216ZM713.34 207.091C713.798 207.091 714.176 206.733 714.176 206.295C714.176 205.858 713.798 205.5 713.34 205.5C712.883 205.5 712.505 205.858 712.505 206.295C712.505 206.733 712.883 207.091 713.34 207.091ZM716.066 205.818V214.33C716.066 215.418 716.623 216.06 717.737 216.06C718.075 216.06 718.408 216 718.612 215.94L718.373 214.926C718.259 214.961 718.154 214.996 717.876 215.006C717.359 215.021 717.239 214.752 717.239 214.011V205.818H716.066ZM726.51 216.159C727.982 216.159 728.479 215.244 728.737 214.827H728.877V216H730.01V208.364H728.837V209.577H728.737C728.479 209.179 728.021 208.264 726.53 208.264C724.601 208.264 723.269 209.795 723.269 212.202C723.269 214.628 724.601 216.159 726.51 216.159ZM726.669 215.105C725.198 215.105 724.442 213.812 724.442 212.182C724.442 210.571 725.178 209.318 726.669 209.318C728.101 209.318 728.857 210.472 728.857 212.182C728.857 213.912 728.081 215.105 726.669 215.105ZM735.205 216.159C736.677 216.159 737.174 215.244 737.433 214.827H737.572V216H738.705V205.818H737.532V209.577H737.433C737.174 209.179 736.717 208.264 735.225 208.264C733.296 208.264 731.964 209.795 731.964 212.202C731.964 214.628 733.296 216.159 735.205 216.159ZM735.365 215.105C733.893 215.105 733.137 213.812 733.137 212.182C733.137 210.571 733.873 209.318 735.365 209.318C736.796 209.318 737.552 210.472 737.552 212.182C737.552 213.912 736.776 215.105 735.365 215.105ZM743.901 216.159C745.372 216.159 745.869 215.244 746.128 214.827H746.267V216H747.401V205.818H746.227V209.577H746.128C745.869 209.179 745.412 208.264 743.921 208.264C741.992 208.264 740.659 209.795 740.659 212.202C740.659 214.628 741.992 216.159 743.901 216.159ZM744.06 215.105C742.588 215.105 741.833 213.812 741.833 212.182C741.833 210.571 742.568 209.318 744.06 209.318C745.492 209.318 746.247 210.472 746.247 212.182C746.247 213.912 745.472 215.105 744.06 215.105ZM749.713 216H750.886V211.168C750.886 210.138 751.701 209.378 752.815 209.378C753.108 209.378 753.327 209.433 753.491 209.517L753.889 208.523C753.65 208.354 753.337 208.244 752.914 208.244C751.99 208.244 751.199 208.761 750.926 209.517H750.846V208.364H749.713V216ZM758.055 216.159C759.606 216.159 760.74 215.384 761.097 214.23L759.964 213.912C759.666 214.707 758.975 215.105 758.055 215.105C756.678 215.105 755.728 214.215 755.673 212.58H761.217V212.082C761.217 209.239 759.526 208.264 757.936 208.264C755.867 208.264 754.495 209.895 754.495 212.241C754.495 214.588 755.847 216.159 758.055 216.159ZM755.673 211.565C755.753 210.377 756.593 209.318 757.936 209.318C759.208 209.318 760.024 210.273 760.024 211.565H755.673ZM768.411 210.074C768.043 208.99 767.218 208.264 765.706 208.264C764.095 208.264 762.902 209.179 762.902 210.472C762.902 211.526 763.529 212.232 764.931 212.56L766.203 212.858C766.974 213.037 767.337 213.405 767.337 213.932C767.337 214.588 766.641 215.125 765.547 215.125C764.588 215.125 763.986 214.712 763.777 213.892L762.664 214.17C762.937 215.468 764.006 216.159 765.567 216.159C767.342 216.159 768.55 215.19 768.55 213.872C768.55 212.808 767.884 212.137 766.521 211.804L765.388 211.526C764.483 211.302 764.075 210.999 764.075 210.412C764.075 209.756 764.771 209.278 765.706 209.278C766.73 209.278 767.153 209.845 767.357 210.372L768.411 210.074ZM775.725 210.074C775.357 208.99 774.532 208.264 773.021 208.264C771.41 208.264 770.217 209.179 770.217 210.472C770.217 211.526 770.843 212.232 772.245 212.56L773.518 212.858C774.288 213.037 774.651 213.405 774.651 213.932C774.651 214.588 773.955 215.125 772.862 215.125C771.902 215.125 771.3 214.712 771.092 213.892L769.978 214.17C770.251 215.468 771.32 216.159 772.881 216.159C774.656 216.159 775.864 215.19 775.864 213.872C775.864 212.808 775.198 212.137 773.836 211.804L772.702 211.526C771.798 211.302 771.39 210.999 771.39 210.412C771.39 209.756 772.086 209.278 773.021 209.278C774.045 209.278 774.467 209.845 774.671 210.372L775.725 210.074Z" fill="#718096"/>
<rect x="660" y="269" width="350" height="52" rx="5" fill="#F7FAFC"/>
<path d="M677.233 300H678.466V295.446H682.881V294.352H678.466V290.912H683.338V289.818H677.233V300ZM689.625 296.878C689.625 298.31 688.531 298.966 687.656 298.966C686.681 298.966 685.985 298.25 685.985 297.136V292.364H684.812V297.216C684.812 299.165 685.846 300.099 687.278 300.099C688.431 300.099 689.187 299.483 689.545 298.707H689.625V300H690.798V292.364H689.625V296.878ZM692.947 289.818V298.33C692.947 299.418 693.504 300.06 694.617 300.06C694.955 300.06 695.289 300 695.492 299.94L695.254 298.926C695.139 298.961 695.035 298.996 694.757 299.006C694.24 299.021 694.12 298.752 694.12 298.011V289.818H692.947ZM696.775 289.818V298.33C696.775 299.418 697.332 300.06 698.445 300.06C698.784 300.06 699.117 300 699.32 299.94L699.082 298.926C698.968 298.961 698.863 298.996 698.585 299.006C698.068 299.021 697.948 298.752 697.948 298.011V289.818H696.775ZM712.569 289.818H711.355V297.832H711.256L705.688 289.818H704.495V300H705.728V292.006H705.827L711.375 300H712.569V289.818ZM717.76 300.159C719.232 300.159 719.729 299.244 719.987 298.827H720.127V300H721.26V292.364H720.087V293.577H719.987C719.729 293.179 719.271 292.264 717.78 292.264C715.851 292.264 714.519 293.795 714.519 296.202C714.519 298.628 715.851 300.159 717.76 300.159ZM717.919 299.105C716.448 299.105 715.692 297.812 715.692 296.182C715.692 294.571 716.428 293.318 717.919 293.318C719.351 293.318 720.107 294.472 720.107 296.182C720.107 297.912 719.331 299.105 717.919 299.105ZM723.572 300H724.745V295.227C724.745 294.109 725.561 293.318 726.475 293.318C727.365 293.318 727.987 293.9 727.987 294.77V300H729.18V295.028C729.18 294.044 729.796 293.318 730.87 293.318C731.705 293.318 732.421 293.761 732.421 294.889V300H733.595V294.889C733.595 293.094 732.63 292.264 731.268 292.264C730.174 292.264 729.374 292.766 728.981 293.557H728.901C728.524 292.741 727.857 292.264 726.853 292.264C725.859 292.264 725.123 292.741 724.805 293.557H724.705V292.364H723.572V300ZM738.942 300.159C740.493 300.159 741.626 299.384 741.984 298.23L740.851 297.912C740.552 298.707 739.861 299.105 738.942 299.105C737.564 299.105 736.615 298.215 736.56 296.58H742.104V296.082C742.104 293.239 740.413 292.264 738.822 292.264C736.754 292.264 735.382 293.895 735.382 296.241C735.382 298.588 736.734 300.159 738.942 300.159ZM736.56 295.565C736.64 294.377 737.48 293.318 738.822 293.318C740.095 293.318 740.91 294.273 740.91 295.565H736.56Z" fill="#718096"/>
<rect x="660" y="353" width="350" height="52" rx="4" fill="#BE4448"/>
<path d="M824.038 376.617H825.812C825.778 374.897 824.311 373.679 822.143 373.679C820.006 373.679 818.4 374.882 818.405 376.682C818.405 378.143 819.444 378.984 821.119 379.416L822.278 379.714C823.376 379.993 824.102 380.336 824.107 381.126C824.102 381.996 823.277 382.578 822.074 382.578C820.92 382.578 820.026 382.061 819.951 380.992H818.136C818.211 383.016 819.717 384.154 822.089 384.154C824.53 384.154 825.947 382.936 825.952 381.141C825.947 379.376 824.49 378.571 822.959 378.208L822.004 377.969C821.169 377.771 820.264 377.418 820.274 376.567C820.279 375.802 820.965 375.24 822.119 375.24C823.217 375.24 823.943 375.752 824.038 376.617ZM830.897 384.149C832.677 384.149 833.9 383.279 834.218 381.952L832.538 381.763C832.294 382.409 831.698 382.747 830.922 382.747C829.759 382.747 828.988 381.982 828.973 380.674H834.293V380.122C834.293 377.442 832.682 376.264 830.803 376.264C828.615 376.264 827.188 377.87 827.188 380.227C827.188 382.623 828.595 384.149 830.897 384.149ZM828.978 379.461C829.033 378.487 829.754 377.666 830.828 377.666C831.862 377.666 832.558 378.422 832.568 379.461H828.978ZM837.615 379.526C837.615 378.422 838.281 377.786 839.231 377.786C840.161 377.786 840.717 378.397 840.717 379.416V384H842.517V379.138C842.522 377.308 841.478 376.264 839.902 376.264C838.759 376.264 837.973 376.811 837.625 377.661H837.536V376.364H835.815V384H837.615V379.526ZM847.18 384.134C848.493 384.134 849.085 383.354 849.368 382.797H849.477V384H851.247V373.818H849.442V377.626H849.368C849.094 377.075 848.533 376.264 847.185 376.264C845.42 376.264 844.033 377.646 844.033 380.192C844.033 382.707 845.381 384.134 847.18 384.134ZM847.683 382.658C846.494 382.658 845.868 381.614 845.868 380.182C845.868 378.76 846.484 377.741 847.683 377.741C848.841 377.741 849.477 378.7 849.477 380.182C849.477 381.663 848.831 382.658 847.683 382.658Z" fill="white"/>
<path d="M725.501 46H734.542V43.7912H728.136V31.4545H725.501V46ZM741.545 46.2131C744.088 46.2131 745.835 44.9702 746.289 43.0739L743.889 42.804C743.541 43.7273 742.689 44.2102 741.581 44.2102C739.919 44.2102 738.818 43.1165 738.797 41.2486H746.396V40.4602C746.396 36.6321 744.095 34.9489 741.41 34.9489C738.285 34.9489 736.247 37.2429 736.247 40.6094C736.247 44.0327 738.257 46.2131 741.545 46.2131ZM738.804 39.5156C738.882 38.1236 739.912 36.9517 741.446 36.9517C742.923 36.9517 743.917 38.0312 743.931 39.5156H738.804ZM751.71 46.2202C753.422 46.2202 754.445 45.4176 754.913 44.5014H754.999V46H757.47V38.6989C757.47 35.8153 755.119 34.9489 753.038 34.9489C750.744 34.9489 748.983 35.9716 748.415 37.9602L750.815 38.3011C751.071 37.5554 751.795 36.9162 753.053 36.9162C754.246 36.9162 754.899 37.527 754.899 38.5994V38.642C754.899 39.3807 754.125 39.4162 752.2 39.6222C750.084 39.8494 748.06 40.4815 748.06 42.9389C748.06 45.0838 749.629 46.2202 751.71 46.2202ZM752.378 44.331C751.305 44.331 750.538 43.8409 750.538 42.8963C750.538 41.9091 751.398 41.4972 752.548 41.3338C753.223 41.2415 754.572 41.071 754.906 40.8011V42.0866C754.906 43.3011 753.926 44.331 752.378 44.331ZM769.409 35.0909H766.675L764.161 43.1946H764.047L761.54 35.0909H758.798L762.683 46H765.524L769.409 35.0909ZM775.647 46.2131C778.189 46.2131 779.936 44.9702 780.391 43.0739L777.99 42.804C777.642 43.7273 776.79 44.2102 775.682 44.2102C774.02 44.2102 772.919 43.1165 772.898 41.2486H780.498V40.4602C780.498 36.6321 778.196 34.9489 775.512 34.9489C772.387 34.9489 770.348 37.2429 770.348 40.6094C770.348 44.0327 772.358 46.2131 775.647 46.2131ZM772.905 39.5156C772.983 38.1236 774.013 36.9517 775.547 36.9517C777.025 36.9517 778.019 38.0312 778.033 39.5156H772.905ZM794.587 41.4119C794.587 43.0739 793.401 43.8977 792.264 43.8977C791.028 43.8977 790.205 43.0241 790.205 41.6392V35.0909H787.634V42.0369C787.634 44.6577 789.125 46.142 791.27 46.142C792.903 46.142 794.054 45.2827 794.551 44.0611H794.665V46H797.158V35.0909H794.587V41.4119ZM808.424 37.9744C808.069 36.1278 806.591 34.9489 804.034 34.9489C801.407 34.9489 799.617 36.2415 799.624 38.2585C799.617 39.8494 800.597 40.9006 802.692 41.3338L804.553 41.7244C805.554 41.9446 806.023 42.3494 806.023 42.9673C806.023 43.7131 805.213 44.2741 803.992 44.2741C802.813 44.2741 802.046 43.7628 801.826 42.7827L799.319 43.0241C799.638 45.027 801.321 46.2131 803.999 46.2131C806.726 46.2131 808.651 44.7997 808.658 42.733C808.651 41.1776 807.65 40.2259 805.59 39.7784L803.729 39.3807C802.621 39.1321 802.181 38.7486 802.188 38.1165C802.181 37.3778 802.998 36.8665 804.07 36.8665C805.256 36.8665 805.881 37.5128 806.08 38.2301L808.424 37.9744ZM817.337 50.0909C819.34 50.0909 820.498 49.0611 821.115 47.321L825.498 35.1051L822.749 35.0909L820.228 43.3295H820.114L817.6 35.0909H814.873L818.828 46.2273L818.608 46.8168C818.132 48.0597 817.38 48.1449 816.257 47.8182L815.661 49.821C816.009 49.9631 816.634 50.0909 817.337 50.0909ZM831.669 46.2131C834.865 46.2131 836.897 43.9616 836.897 40.5881C836.897 37.2074 834.865 34.9489 831.669 34.9489C828.473 34.9489 826.442 37.2074 826.442 40.5881C826.442 43.9616 828.473 46.2131 831.669 46.2131ZM831.684 44.1534C829.915 44.1534 829.049 42.5767 829.049 40.581C829.049 38.5852 829.915 36.9872 831.684 36.9872C833.424 36.9872 834.29 38.5852 834.29 40.581C834.29 42.5767 833.424 44.1534 831.684 44.1534ZM846.032 41.4119C846.032 43.0739 844.846 43.8977 843.71 43.8977C842.474 43.8977 841.65 43.0241 841.65 41.6392V35.0909H839.079V42.0369C839.079 44.6577 840.57 46.142 842.715 46.142C844.349 46.142 845.499 45.2827 845.996 44.0611H846.11V46H848.603V35.0909H846.032V41.4119ZM851.247 46H853.818V39.5866C853.818 38.2017 854.862 37.2216 856.275 37.2216C856.708 37.2216 857.248 37.2997 857.468 37.3707V35.0057C857.234 34.9631 856.829 34.9347 856.545 34.9347C855.295 34.9347 854.251 35.6449 853.853 36.9091H853.74V35.0909H851.247V46ZM864.137 46H866.708V35.0909H864.137V46ZM865.43 33.5426C866.247 33.5426 866.914 32.9176 866.914 32.1506C866.914 31.3764 866.247 30.7514 865.43 30.7514C864.606 30.7514 863.939 31.3764 863.939 32.1506C863.939 32.9176 864.606 33.5426 865.43 33.5426ZM871.923 39.608C871.923 38.0312 872.875 37.1222 874.232 37.1222C875.56 37.1222 876.355 37.9957 876.355 39.4517V46H878.926V39.054C878.933 36.4403 877.442 34.9489 875.19 34.9489C873.557 34.9489 872.435 35.7301 871.938 36.9446H871.81V35.0909H869.352V46H871.923V39.608ZM887.065 35.0909H884.8V34.2315C884.8 33.3793 885.155 32.9034 886.114 32.9034C886.518 32.9034 886.859 32.9957 887.072 33.0597L887.591 31.071C887.257 30.9574 886.526 30.7727 885.638 30.7727C883.741 30.7727 882.229 31.8594 882.229 34.0611V35.0909H880.616V37.0795H882.229V46H884.8V37.0795H887.065V35.0909ZM893.427 46.2131C896.623 46.2131 898.654 43.9616 898.654 40.5881C898.654 37.2074 896.623 34.9489 893.427 34.9489C890.231 34.9489 888.2 37.2074 888.2 40.5881C888.2 43.9616 890.231 46.2131 893.427 46.2131ZM893.441 44.1534C891.673 44.1534 890.806 42.5767 890.806 40.581C890.806 38.5852 891.673 36.9872 893.441 36.9872C895.181 36.9872 896.048 38.5852 896.048 40.581C896.048 42.5767 895.181 44.1534 893.441 44.1534ZM903.855 44.0114H901.582L901.533 44.8068C901.412 46.7315 900.908 48.6918 900.702 49.5511H902.435C902.776 48.6562 903.564 46.5824 903.763 44.7926L903.855 44.0114ZM913.498 46H916.183L918.228 38.6278H918.377L920.423 46H923.1L926.19 35.0909H923.562L921.673 42.7188H921.566L919.606 35.0909H917.014L915.054 42.7614H914.954L913.037 35.0909H910.416L913.498 46ZM932.522 46.2131C935.064 46.2131 936.811 44.9702 937.266 43.0739L934.865 42.804C934.517 43.7273 933.665 44.2102 932.557 44.2102C930.895 44.2102 929.794 43.1165 929.773 41.2486H937.373V40.4602C937.373 36.6321 935.071 34.9489 932.387 34.9489C929.262 34.9489 927.223 37.2429 927.223 40.6094C927.223 44.0327 929.233 46.2131 932.522 46.2131ZM929.78 39.5156C929.858 38.1236 930.888 36.9517 932.422 36.9517C933.9 36.9517 934.894 38.0312 934.908 39.5156H929.78ZM941.728 31.4545H939.683V32.9176C939.683 34.0753 939.228 34.9631 938.71 35.7443L939.903 36.5185C940.947 35.652 941.728 34.1605 941.728 32.9034V31.4545ZM946.396 31.4545H943.825V46H946.396V31.4545ZM951.611 31.4545H949.04V46H951.611V31.4545ZM717.593 77.3182C720.54 77.3182 722.713 75.9688 722.713 73.1776V62.0909H720.178V63.8949H720.036C719.645 63.1065 718.828 61.9489 716.904 61.9489C714.382 61.9489 712.401 63.9233 712.401 67.5099C712.401 71.0682 714.382 72.8438 716.897 72.8438C718.765 72.8438 719.638 71.8423 720.036 71.0398H720.164V73.1065C720.164 74.7116 719.098 75.3722 717.635 75.3722C716.087 75.3722 715.405 74.6406 715.093 74.0014L712.777 74.5625C713.246 76.0895 714.816 77.3182 717.593 77.3182ZM717.614 70.8267C715.917 70.8267 715.022 69.5057 715.022 67.4957C715.022 65.5142 715.902 64.0582 717.614 64.0582C719.269 64.0582 720.178 65.429 720.178 67.4957C720.178 69.5767 719.255 70.8267 717.614 70.8267ZM730.178 73.2131C732.721 73.2131 734.468 71.9702 734.922 70.0739L732.522 69.804C732.174 70.7273 731.321 71.2102 730.213 71.2102C728.551 71.2102 727.451 70.1165 727.429 68.2486H735.029V67.4602C735.029 63.6321 732.728 61.9489 730.043 61.9489C726.918 61.9489 724.88 64.2429 724.88 67.6094C724.88 71.0327 726.89 73.2131 730.178 73.2131ZM727.436 66.5156C727.515 65.1236 728.544 63.9517 730.078 63.9517C731.556 63.9517 732.55 65.0312 732.564 66.5156H727.436ZM742.651 62.0909H740.499V59.4773H737.928V62.0909H736.38V64.0795H737.928V70.1449C737.914 72.1974 739.406 73.206 741.337 73.1491C742.069 73.1278 742.573 72.9858 742.85 72.8935L742.417 70.8835C742.275 70.919 741.984 70.983 741.664 70.983C741.018 70.983 740.499 70.7557 740.499 69.7188V64.0795H742.651V62.0909ZM749.876 73H752.404V71.2812H752.554C752.958 72.0767 753.804 73.1918 755.679 73.1918C758.25 73.1918 760.174 71.1534 760.174 67.5597C760.174 63.9233 758.193 61.9489 755.672 61.9489C753.747 61.9489 752.944 63.1065 752.554 63.8949H752.447V58.4545H749.876V73ZM752.397 67.5455C752.397 65.429 753.306 64.0582 754.961 64.0582C756.673 64.0582 757.554 65.5142 757.554 67.5455C757.554 69.5909 756.659 71.0824 754.961 71.0824C753.321 71.0824 752.397 69.6619 752.397 67.5455ZM765.499 73.2202C767.211 73.2202 768.234 72.4176 768.702 71.5014H768.788V73H771.259V65.6989C771.259 62.8153 768.908 61.9489 766.827 61.9489C764.533 61.9489 762.772 62.9716 762.204 64.9602L764.604 65.3011C764.86 64.5554 765.585 63.9162 766.842 63.9162C768.035 63.9162 768.688 64.527 768.688 65.5994V65.642C768.688 66.3807 767.914 66.4162 765.989 66.6222C763.873 66.8494 761.849 67.4815 761.849 69.9389C761.849 72.0838 763.418 73.2202 765.499 73.2202ZM766.167 71.331C765.094 71.331 764.327 70.8409 764.327 69.8963C764.327 68.9091 765.187 68.4972 766.337 68.3338C767.012 68.2415 768.362 68.071 768.695 67.8011V69.0866C768.695 70.3011 767.715 71.331 766.167 71.331ZM778.603 73.2131C781.344 73.2131 783.092 71.5866 783.276 69.2713H780.819C780.599 70.4432 779.754 71.1179 778.624 71.1179C777.019 71.1179 775.982 69.7756 775.982 67.5455C775.982 65.3438 777.04 64.0227 778.624 64.0227C779.86 64.0227 780.62 64.8182 780.819 65.8693H783.276C783.099 63.5043 781.252 61.9489 778.589 61.9489C775.393 61.9489 773.376 64.2571 773.376 67.5881C773.376 70.8906 775.343 73.2131 778.603 73.2131ZM785.387 73H787.958V69.3352L788.896 68.3338L792.234 73H795.309L790.835 66.7997L795.061 62.0909H792.056L788.136 66.473H787.958V58.4545H785.387V73ZM807.183 62.0909H805.031V59.4773H802.46V62.0909H800.911V64.0795H802.46V70.1449C802.445 72.1974 803.937 73.206 805.869 73.1491C806.6 73.1278 807.104 72.9858 807.381 72.8935L806.948 70.8835C806.806 70.919 806.515 70.983 806.195 70.983C805.549 70.983 805.031 70.7557 805.031 69.7188V64.0795H807.183V62.0909ZM813.974 73.2131C817.17 73.2131 819.201 70.9616 819.201 67.5881C819.201 64.2074 817.17 61.9489 813.974 61.9489C810.778 61.9489 808.747 64.2074 808.747 67.5881C808.747 70.9616 810.778 73.2131 813.974 73.2131ZM813.988 71.1534C812.22 71.1534 811.353 69.5767 811.353 67.581C811.353 65.5852 812.22 63.9872 813.988 63.9872C815.728 63.9872 816.595 65.5852 816.595 67.581C816.595 69.5767 815.728 71.1534 813.988 71.1534ZM827.942 77.0909C829.945 77.0909 831.103 76.0611 831.721 74.321L836.103 62.1051L833.354 62.0909L830.833 70.3295H830.719L828.205 62.0909H825.478L829.434 73.2273L829.214 73.8168C828.738 75.0597 827.985 75.1449 826.863 74.8182L826.266 76.821C826.614 76.9631 827.239 77.0909 827.942 77.0909ZM842.275 73.2131C845.471 73.2131 847.502 70.9616 847.502 67.5881C847.502 64.2074 845.471 61.9489 842.275 61.9489C839.079 61.9489 837.048 64.2074 837.048 67.5881C837.048 70.9616 839.079 73.2131 842.275 73.2131ZM842.289 71.1534C840.521 71.1534 839.654 69.5767 839.654 67.581C839.654 65.5852 840.521 63.9872 842.289 63.9872C844.029 63.9872 844.896 65.5852 844.896 67.581C844.896 69.5767 844.029 71.1534 842.289 71.1534ZM856.637 68.4119C856.637 70.0739 855.451 70.8977 854.315 70.8977C853.079 70.8977 852.255 70.0241 852.255 68.6392V62.0909H849.684V69.0369C849.684 71.6577 851.176 73.142 853.321 73.142C854.954 73.142 856.105 72.2827 856.602 71.0611H856.716V73H859.208V62.0909H856.637V68.4119ZM866.813 73H869.384V66.5866C869.384 65.2017 870.428 64.2216 871.842 64.2216C872.275 64.2216 872.815 64.2997 873.035 64.3707V62.0057C872.8 61.9631 872.396 61.9347 872.112 61.9347C870.862 61.9347 869.817 62.6449 869.42 63.9091H869.306V62.0909H866.813V73ZM879.123 73.2131C881.666 73.2131 883.413 71.9702 883.868 70.0739L881.467 69.804C881.119 70.7273 880.267 71.2102 879.159 71.2102C877.497 71.2102 876.396 70.1165 876.375 68.2486H883.974V67.4602C883.974 63.6321 881.673 61.9489 878.988 61.9489C875.863 61.9489 873.825 64.2429 873.825 67.6094C873.825 71.0327 875.835 73.2131 879.123 73.2131ZM876.382 66.5156C876.46 65.1236 877.49 63.9517 879.024 63.9517C880.501 63.9517 881.495 65.0312 881.51 66.5156H876.382ZM889.288 73.2202C891 73.2202 892.023 72.4176 892.491 71.5014H892.577V73H895.048V65.6989C895.048 62.8153 892.697 61.9489 890.616 61.9489C888.322 61.9489 886.561 62.9716 885.993 64.9602L888.393 65.3011C888.649 64.5554 889.374 63.9162 890.631 63.9162C891.824 63.9162 892.477 64.527 892.477 65.5994V65.642C892.477 66.3807 891.703 66.4162 889.778 66.6222C887.662 66.8494 885.638 67.4815 885.638 69.9389C885.638 72.0838 887.207 73.2202 889.288 73.2202ZM889.956 71.331C888.884 71.331 888.116 70.8409 888.116 69.8963C888.116 68.9091 888.976 68.4972 890.126 68.3338C890.801 68.2415 892.151 68.071 892.484 67.8011V69.0866C892.484 70.3011 891.504 71.331 889.956 71.331ZM900.205 58.4545H897.634V73H900.205V58.4545ZM917.66 77.0909V62.0909H915.132V63.8949H914.983C914.592 63.1065 913.789 61.9489 911.865 61.9489C909.343 61.9489 907.362 63.9233 907.362 67.5597C907.362 71.1534 909.287 73.1918 911.858 73.1918C913.733 73.1918 914.578 72.0767 914.983 71.2812H915.089V77.0909H917.66ZM915.139 67.5455C915.139 69.6619 914.216 71.0824 912.575 71.0824C910.877 71.0824 909.983 69.5909 909.983 67.5455C909.983 65.5142 910.863 64.0582 912.575 64.0582C914.23 64.0582 915.139 65.429 915.139 67.5455ZM927.262 68.4119C927.262 70.0739 926.076 70.8977 924.94 70.8977C923.704 70.8977 922.88 70.0241 922.88 68.6392V62.0909H920.309V69.0369C920.309 71.6577 921.801 73.142 923.946 73.142C925.579 73.142 926.73 72.2827 927.227 71.0611H927.341V73H929.833V62.0909H927.262V68.4119ZM932.477 73H935.048V62.0909H932.477V73ZM933.77 60.5426C934.587 60.5426 935.254 59.9176 935.254 59.1506C935.254 58.3764 934.587 57.7514 933.77 57.7514C932.946 57.7514 932.278 58.3764 932.278 59.1506C932.278 59.9176 932.946 60.5426 933.77 60.5426ZM942.451 73.2131C945.192 73.2131 946.939 71.5866 947.124 69.2713H944.667C944.446 70.4432 943.601 71.1179 942.472 71.1179C940.867 71.1179 939.83 69.7756 939.83 67.5455C939.83 65.3438 940.888 64.0227 942.472 64.0227C943.708 64.0227 944.468 64.8182 944.667 65.8693H947.124C946.946 63.5043 945.1 61.9489 942.436 61.9489C939.24 61.9489 937.223 64.2571 937.223 67.5881C937.223 70.8906 939.191 73.2131 942.451 73.2131ZM949.235 73H951.806V69.3352L952.744 68.3338L956.082 73H959.157L954.683 66.7997L958.908 62.0909H955.904L951.984 66.473H951.806V58.4545H949.235V73ZM963.768 58.4545H961.02L961.247 68.7244H963.534L963.768 58.4545ZM962.39 73.1562C963.228 73.1562 963.946 72.4602 963.953 71.5938C963.946 70.7415 963.228 70.0455 962.39 70.0455C961.524 70.0455 960.821 70.7415 960.828 71.5938C960.821 72.4602 961.524 73.1562 962.39 73.1562Z" fill="white"/>
<g clip-path="url(#clip0_26:3968)">
<path d="M58.4091 159C69.0455 159 75.4886 152.42 75.4886 141.511C75.4886 130.636 69.0455 124.091 58.5114 124.091H46.0341V159H58.4091ZM53.4148 152.676V130.415H58.1193C64.6648 130.415 68.125 133.756 68.125 141.511C68.125 149.301 64.6648 152.676 58.1023 152.676H53.4148ZM92.6491 159.511C100.592 159.511 105.536 154.074 105.536 146.011C105.536 137.898 100.592 132.477 92.6491 132.477C84.706 132.477 79.7628 137.898 79.7628 146.011C79.7628 154.074 84.706 159.511 92.6491 159.511ZM92.6832 153.886C89.0185 153.886 87.1435 150.528 87.1435 145.96C87.1435 141.392 89.0185 138.017 92.6832 138.017C96.2798 138.017 98.1548 141.392 98.1548 145.96C98.1548 150.528 96.2798 153.886 92.6832 153.886ZM125.849 168.818C131.253 168.818 134.116 166.057 135.599 161.83L145.776 132.852L138.088 132.818L132.616 152.045H132.344L126.923 132.818H119.287L128.679 159.75L128.253 160.858C127.298 163.312 125.474 163.432 122.918 162.648L121.281 168.068C122.321 168.511 124.009 168.818 125.849 168.818ZM160.43 159.511C168.374 159.511 173.317 154.074 173.317 146.011C173.317 137.898 168.374 132.477 160.43 132.477C152.487 132.477 147.544 137.898 147.544 146.011C147.544 154.074 152.487 159.511 160.43 159.511ZM160.464 153.886C156.8 153.886 154.925 150.528 154.925 145.96C154.925 141.392 156.8 138.017 160.464 138.017C164.061 138.017 165.936 141.392 165.936 145.96C165.936 150.528 164.061 153.886 160.464 153.886ZM194.828 147.852C194.845 151.364 192.442 153.205 189.834 153.205C187.089 153.205 185.317 151.278 185.3 148.193V132.818H178.038V149.489C178.055 155.608 181.635 159.341 186.902 159.341C190.839 159.341 193.669 157.312 194.845 154.244H195.118V159H202.089V132.818H194.828V147.852ZM226.268 143.864C226.286 140.489 228.348 138.511 231.314 138.511C234.263 138.511 236.001 140.403 235.984 143.625V159H243.246V142.33C243.263 136.193 239.649 132.477 234.195 132.477C230.223 132.477 227.564 134.352 226.371 137.438H226.064V124.091H219.007V159H226.268V143.864ZM256.426 159.494C260.295 159.494 262.801 157.807 264.08 155.369H264.284V159H271.17V141.341C271.17 135.102 265.886 132.477 260.057 132.477C253.784 132.477 249.659 135.477 248.653 140.25L255.369 140.795C255.864 139.057 257.415 137.778 260.023 137.778C262.494 137.778 263.909 139.023 263.909 141.17V141.273C263.909 142.96 262.119 143.182 257.568 143.625C252.386 144.102 247.733 145.841 247.733 151.688C247.733 156.869 251.432 159.494 256.426 159.494ZM258.506 154.483C256.273 154.483 254.67 153.443 254.67 151.449C254.67 149.403 256.358 148.398 258.915 148.04C260.5 147.818 263.091 147.443 263.96 146.864V149.642C263.96 152.386 261.693 154.483 258.506 154.483ZM300.276 132.818H292.588L287.168 151.551H286.895L281.457 132.818H273.787L282.94 159H291.122L300.276 132.818ZM315.033 159.511C321.51 159.511 325.874 156.358 326.896 151.5L320.18 151.057C319.447 153.051 317.572 154.091 315.152 154.091C311.521 154.091 309.22 151.688 309.22 147.784V147.767H327.05V145.773C327.05 136.875 321.663 132.477 314.743 132.477C307.038 132.477 302.044 137.949 302.044 146.028C302.044 154.33 306.97 159.511 315.033 159.511ZM309.22 143.267C309.374 140.284 311.641 137.898 314.862 137.898C318.016 137.898 320.197 140.148 320.214 143.267H309.22ZM350.364 159.494C354.233 159.494 356.739 157.807 358.017 155.369H358.222V159H365.108V141.341C365.108 135.102 359.824 132.477 353.994 132.477C347.722 132.477 343.597 135.477 342.591 140.25L349.307 140.795C349.801 139.057 351.352 137.778 353.96 137.778C356.432 137.778 357.847 139.023 357.847 141.17V141.273C357.847 142.96 356.057 143.182 351.506 143.625C346.324 144.102 341.67 145.841 341.67 151.688C341.67 156.869 345.369 159.494 350.364 159.494ZM352.443 154.483C350.21 154.483 348.608 153.443 348.608 151.449C348.608 149.403 350.295 148.398 352.852 148.04C354.438 147.818 357.028 147.443 357.898 146.864V149.642C357.898 152.386 355.631 154.483 352.443 154.483ZM381.851 168.818H389.112V154.807H389.334C390.339 156.989 392.538 159.426 396.766 159.426C402.732 159.426 407.385 154.705 407.385 145.943C407.385 136.943 402.527 132.477 396.783 132.477C392.402 132.477 390.305 135.085 389.334 137.216H389.01V132.818H381.851V168.818ZM388.959 145.909C388.959 141.239 390.936 138.256 394.464 138.256C398.061 138.256 399.97 141.375 399.97 145.909C399.97 150.477 398.027 153.648 394.464 153.648C390.97 153.648 388.959 150.58 388.959 145.909ZM412.226 159H419.487V144.188C419.487 140.966 421.839 138.75 425.044 138.75C426.05 138.75 427.43 138.92 428.112 139.142V132.699C427.464 132.545 426.561 132.443 425.828 132.443C422.896 132.443 420.493 134.148 419.538 137.386H419.266V132.818H412.226V159ZM442.477 159.511C450.42 159.511 455.364 154.074 455.364 146.011C455.364 137.898 450.42 132.477 442.477 132.477C434.534 132.477 429.591 137.898 429.591 146.011C429.591 154.074 434.534 159.511 442.477 159.511ZM442.511 153.886C438.847 153.886 436.972 150.528 436.972 145.96C436.972 141.392 438.847 138.017 442.511 138.017C446.108 138.017 447.983 141.392 447.983 145.96C447.983 150.528 446.108 153.886 442.511 153.886ZM460.085 132.818V160.176C460.085 162.153 459.25 163.142 456.915 163.142C456.608 163.142 456.335 163.142 455.96 163.108V168.784C456.489 168.801 456.915 168.818 457.426 168.818C463.597 168.818 467.347 166.364 467.347 160.295V132.818H460.085ZM463.699 129.443C465.864 129.443 467.636 127.79 467.636 125.761C467.636 123.75 465.864 122.097 463.699 122.097C461.551 122.097 459.778 123.75 459.778 125.761C459.778 127.79 461.551 129.443 463.699 129.443ZM485.095 159.511C491.572 159.511 495.936 156.358 496.959 151.5L490.243 151.057C489.51 153.051 487.635 154.091 485.214 154.091C481.584 154.091 479.283 151.688 479.283 147.784V147.767H497.112V145.773C497.112 136.875 491.726 132.477 484.805 132.477C477.101 132.477 472.107 137.949 472.107 146.028C472.107 154.33 477.033 159.511 485.095 159.511ZM479.283 143.267C479.436 140.284 481.703 137.898 484.925 137.898C488.078 137.898 490.26 140.148 490.277 143.267H479.283ZM513.68 159.511C520.652 159.511 525.033 155.42 525.374 149.403H518.521C518.095 152.199 516.254 153.767 513.766 153.767C510.374 153.767 508.175 150.92 508.175 145.909C508.175 140.966 510.391 138.136 513.766 138.136C516.425 138.136 518.129 139.892 518.521 142.5H525.374C525.067 136.449 520.482 132.477 513.646 132.477C505.703 132.477 500.794 137.983 500.794 146.011C500.794 153.972 505.618 159.511 513.68 159.511ZM543.949 132.818H539.023V126.545H531.761V132.818H528.182V138.273H531.761V151.909C531.727 157.04 535.222 159.58 540.489 159.358C542.364 159.29 543.693 158.915 544.426 158.676L543.284 153.273C542.926 153.341 542.159 153.511 541.477 153.511C540.028 153.511 539.023 152.966 539.023 150.955V138.273H543.949V132.818ZM45.8977 217H53.1591V190.818H45.8977V217ZM49.5455 187.443C51.7102 187.443 53.483 185.79 53.483 183.761C53.483 181.75 51.7102 180.097 49.5455 180.097C47.3977 180.097 45.625 181.75 45.625 183.761C45.625 185.79 47.3977 187.443 49.5455 187.443ZM66.2372 201.864C66.2543 198.489 68.2656 196.511 71.1974 196.511C74.1122 196.511 75.8679 198.42 75.8509 201.625V217H83.1122V200.33C83.1122 194.227 79.5327 190.477 74.0781 190.477C70.1918 190.477 67.3793 192.386 66.2031 195.438H65.8963V190.818H58.9759V217H66.2372V201.864ZM99.9446 217H107.206V201.284C107.206 198.386 109.047 196.46 111.467 196.46C113.854 196.46 115.456 198.097 115.456 200.67V217H122.496V201.011C122.496 198.301 124.047 196.46 126.689 196.46C129.007 196.46 130.746 197.909 130.746 200.824V217H137.99V199.392C137.99 193.716 134.615 190.477 129.74 190.477C125.905 190.477 122.922 192.438 121.848 195.438H121.575C120.74 192.403 118.064 190.477 114.467 190.477C110.939 190.477 108.263 192.352 107.172 195.438H106.865V190.818H99.9446V217ZM143.726 217H150.987V190.818H143.726V217ZM147.374 187.443C149.538 187.443 151.311 185.79 151.311 183.761C151.311 181.75 149.538 180.097 147.374 180.097C145.226 180.097 143.453 181.75 143.453 183.761C143.453 185.79 145.226 187.443 147.374 187.443ZM164.065 201.864C164.082 198.489 166.094 196.511 169.026 196.511C171.94 196.511 173.696 198.42 173.679 201.625V217H180.94V200.33C180.94 194.227 177.361 190.477 171.906 190.477C168.02 190.477 165.207 192.386 164.031 195.438H163.724V190.818H156.804V217H164.065V201.864ZM196.311 217.426C200.538 217.426 202.737 214.989 203.743 212.807H204.05V217H211.209V182.091H203.964V195.216H203.743C202.771 193.085 200.675 190.477 196.294 190.477C190.55 190.477 185.692 194.943 185.692 203.943C185.692 212.705 190.345 217.426 196.311 217.426ZM198.612 211.648C195.05 211.648 193.107 208.477 193.107 203.909C193.107 199.375 195.016 196.256 198.612 196.256C202.141 196.256 204.118 199.239 204.118 203.909C204.118 208.58 202.107 211.648 198.612 211.648ZM242.214 190.818H237.288V184.545H230.027V190.818H226.447V196.273H230.027V209.909C229.993 215.04 233.487 217.58 238.754 217.358C240.629 217.29 241.959 216.915 242.692 216.676L241.55 211.273C241.192 211.341 240.425 211.511 239.743 211.511C238.294 211.511 237.288 210.966 237.288 208.955V196.273H242.214V190.818ZM254.768 201.864C254.786 198.489 256.848 196.511 259.814 196.511C262.763 196.511 264.501 198.403 264.484 201.625V217H271.746V200.33C271.763 194.193 268.149 190.477 262.695 190.477C258.723 190.477 256.064 192.352 254.871 195.438H254.564V182.091H247.507V217H254.768V201.864ZM284.926 217.494C288.795 217.494 291.301 215.807 292.58 213.369H292.784V217H299.67V199.341C299.67 193.102 294.386 190.477 288.557 190.477C282.284 190.477 278.159 193.477 277.153 198.25L283.869 198.795C284.364 197.057 285.915 195.778 288.523 195.778C290.994 195.778 292.409 197.023 292.409 199.17V199.273C292.409 200.96 290.619 201.182 286.068 201.625C280.886 202.102 276.233 203.841 276.233 209.688C276.233 214.869 279.932 217.494 284.926 217.494ZM287.006 212.483C284.773 212.483 283.17 211.443 283.17 209.449C283.17 207.403 284.858 206.398 287.415 206.04C289 205.818 291.591 205.443 292.46 204.864V207.642C292.46 210.386 290.193 212.483 287.006 212.483ZM319.23 190.818H314.304V184.545H307.043V190.818H303.463V196.273H307.043V209.909C307.009 215.04 310.503 217.58 315.77 217.358C317.645 217.29 318.974 216.915 319.707 216.676L318.565 211.273C318.207 211.341 317.44 211.511 316.759 211.511C315.31 211.511 314.304 210.966 314.304 208.955V196.273H319.23V190.818ZM339.553 226.818C344.956 226.818 347.82 224.057 349.303 219.83L359.479 190.852L351.791 190.818L346.32 210.045H346.047L340.626 190.818H332.99L342.382 217.75L341.956 218.858C341.001 221.312 339.178 221.432 336.621 220.648L334.984 226.068C336.024 226.511 337.712 226.818 339.553 226.818ZM374.134 217.511C382.077 217.511 387.02 212.074 387.02 204.011C387.02 195.898 382.077 190.477 374.134 190.477C366.19 190.477 361.247 195.898 361.247 204.011C361.247 212.074 366.19 217.511 374.134 217.511ZM374.168 211.886C370.503 211.886 368.628 208.528 368.628 203.96C368.628 199.392 370.503 196.017 374.168 196.017C377.764 196.017 379.639 199.392 379.639 203.96C379.639 208.528 377.764 211.886 374.168 211.886ZM408.531 205.852C408.548 209.364 406.145 211.205 403.537 211.205C400.793 211.205 399.02 209.278 399.003 206.193V190.818H391.741V207.489C391.759 213.608 395.338 217.341 400.605 217.341C404.543 217.341 407.372 215.312 408.548 212.244H408.821V217H415.793V190.818H408.531V205.852ZM439.972 201.864C439.989 198.489 442 196.511 444.932 196.511C447.847 196.511 449.602 198.42 449.585 201.625V217H456.847V200.33C456.847 194.227 453.267 190.477 447.812 190.477C443.926 190.477 441.114 192.386 439.938 195.438H439.631V190.818H432.71V217H439.972V201.864ZM474.501 217.511C480.979 217.511 485.342 214.358 486.365 209.5L479.649 209.057C478.916 211.051 477.041 212.091 474.621 212.091C470.99 212.091 468.689 209.688 468.689 205.784V205.767H486.518V203.773C486.518 194.875 481.132 190.477 474.212 190.477C466.507 190.477 461.513 195.949 461.513 204.028C461.513 212.33 466.439 217.511 474.501 217.511ZM468.689 201.267C468.842 198.284 471.109 195.898 474.331 195.898C477.484 195.898 479.666 198.148 479.683 201.267H468.689ZM503.189 217.511C509.666 217.511 514.03 214.358 515.053 209.5L508.337 209.057C507.604 211.051 505.729 212.091 503.308 212.091C499.678 212.091 497.376 209.688 497.376 205.784V205.767H515.206V203.773C515.206 194.875 509.82 190.477 502.899 190.477C495.195 190.477 490.2 195.949 490.2 204.028C490.2 212.33 495.126 217.511 503.189 217.511ZM497.376 201.267C497.53 198.284 499.797 195.898 503.018 195.898C506.172 195.898 508.354 198.148 508.371 201.267H497.376ZM529.592 217.426C533.82 217.426 536.018 214.989 537.024 212.807H537.331V217H544.49V182.091H537.246V195.216H537.024C536.053 193.085 533.956 190.477 529.575 190.477C523.831 190.477 518.973 194.943 518.973 203.943C518.973 212.705 523.626 217.426 529.592 217.426ZM531.893 211.648C528.331 211.648 526.388 208.477 526.388 203.909C526.388 199.375 528.297 196.256 531.893 196.256C535.422 196.256 537.399 199.239 537.399 203.909C537.399 208.58 535.388 211.648 531.893 211.648ZM59.8239 248.818H54.8977V242.545H47.6364V248.818H44.0568V254.273H47.6364V267.909C47.6023 273.04 51.0966 275.58 56.3636 275.358C58.2386 275.29 59.5682 274.915 60.3011 274.676L59.1591 269.273C58.8011 269.341 58.0341 269.511 57.3523 269.511C55.9034 269.511 54.8977 268.966 54.8977 266.955V254.273H59.8239V248.818ZM76.1023 275.511C84.0455 275.511 88.9886 270.074 88.9886 262.011C88.9886 253.898 84.0455 248.477 76.1023 248.477C68.1591 248.477 63.2159 253.898 63.2159 262.011C63.2159 270.074 68.1591 275.511 76.1023 275.511ZM76.1364 269.886C72.4716 269.886 70.5966 266.528 70.5966 261.96C70.5966 257.392 72.4716 254.017 76.1364 254.017C79.733 254.017 81.608 257.392 81.608 261.96C81.608 266.528 79.733 269.886 76.1364 269.886ZM116.615 285.364C124.098 285.364 129.416 281.955 129.416 275.256V248.818H122.206V253.216H121.933C120.962 251.085 118.831 248.477 114.45 248.477C108.706 248.477 103.848 252.943 103.848 261.858C103.848 270.568 108.57 274.625 114.467 274.625C118.643 274.625 120.979 272.528 121.933 270.364H122.24V275.153C122.24 278.75 119.939 280.148 116.786 280.148C113.581 280.148 111.962 278.75 111.365 277.165L104.649 278.068C105.518 282.193 109.558 285.364 116.615 285.364ZM116.768 269.17C113.206 269.17 111.263 266.341 111.263 261.824C111.263 257.375 113.172 254.256 116.768 254.256C120.297 254.256 122.274 257.239 122.274 261.824C122.274 266.443 120.263 269.17 116.768 269.17ZM147.126 275.511C153.604 275.511 157.967 272.358 158.99 267.5L152.274 267.057C151.541 269.051 149.666 270.091 147.246 270.091C143.615 270.091 141.314 267.688 141.314 263.784V263.767H159.143V261.773C159.143 252.875 153.757 248.477 146.837 248.477C139.132 248.477 134.138 253.949 134.138 262.028C134.138 270.33 139.064 275.511 147.126 275.511ZM141.314 259.267C141.467 256.284 143.734 253.898 146.956 253.898C150.109 253.898 152.291 256.148 152.308 259.267H141.314ZM177.808 248.818H172.882V242.545H165.621V248.818H162.041V254.273H165.621V267.909C165.587 273.04 169.081 275.58 174.348 275.358C176.223 275.29 177.553 274.915 178.286 274.676L177.143 269.273C176.786 269.341 176.018 269.511 175.337 269.511C173.888 269.511 172.882 268.966 172.882 266.955V254.273H177.808V248.818ZM203.295 275.426C207.523 275.426 209.722 272.989 210.727 270.807H211.034V275H218.193V240.091H210.949V253.216H210.727C209.756 251.085 207.659 248.477 203.278 248.477C197.534 248.477 192.676 252.943 192.676 261.943C192.676 270.705 197.33 275.426 203.295 275.426ZM205.597 269.648C202.034 269.648 200.091 266.477 200.091 261.909C200.091 257.375 202 254.256 205.597 254.256C209.125 254.256 211.102 257.239 211.102 261.909C211.102 266.58 209.091 269.648 205.597 269.648ZM235.993 275.511C243.936 275.511 248.879 270.074 248.879 262.011C248.879 253.898 243.936 248.477 235.993 248.477C228.05 248.477 223.107 253.898 223.107 262.011C223.107 270.074 228.05 275.511 235.993 275.511ZM236.027 269.886C232.362 269.886 230.487 266.528 230.487 261.96C230.487 257.392 232.362 254.017 236.027 254.017C239.624 254.017 241.499 257.392 241.499 261.96C241.499 266.528 239.624 269.886 236.027 269.886ZM260.862 259.864C260.879 256.489 262.891 254.511 265.822 254.511C268.737 254.511 270.493 256.42 270.476 259.625V275H277.737V258.33C277.737 252.227 274.158 248.477 268.703 248.477C264.817 248.477 262.004 250.386 260.828 253.438H260.521V248.818H253.601V275H260.862V259.864ZM295.392 275.511C301.869 275.511 306.233 272.358 307.256 267.5L300.54 267.057C299.807 269.051 297.932 270.091 295.511 270.091C291.881 270.091 289.58 267.688 289.58 263.784V263.767H307.409V261.773C307.409 252.875 302.023 248.477 295.102 248.477C287.398 248.477 282.403 253.949 282.403 262.028C282.403 270.33 287.33 275.511 295.392 275.511ZM289.58 259.267C289.733 256.284 292 253.898 295.222 253.898C298.375 253.898 300.557 256.148 300.574 259.267H289.58ZM318.386 264.534H324.847V263.955C324.881 260.631 326.074 259.08 328.767 257.46C331.955 255.568 334.034 253.062 334.034 249.057C334.034 243.091 329.227 239.614 322.46 239.614C316.273 239.614 311.227 242.852 311.074 249.67H318.028C318.131 246.892 320.193 245.409 322.426 245.409C324.727 245.409 326.585 246.943 326.585 249.312C326.585 251.545 324.966 253.028 322.869 254.358C320.006 256.165 318.403 257.989 318.386 263.955V264.534ZM321.744 275.443C323.926 275.443 325.818 273.619 325.835 271.352C325.818 269.119 323.926 267.295 321.744 267.295C319.494 267.295 317.636 269.119 317.653 271.352C317.636 273.619 319.494 275.443 321.744 275.443Z" fill="white"/>
</g>
<defs>
<linearGradient id="paint0_linear_26:3968" x1="1110" y1="433" x2="478.619" y2="-374.316" gradientUnits="userSpaceOnUse">
<stop stop-color="#2E46C5"/>
<stop offset="1" stop-color="#0059A8"/>
</linearGradient>
<clipPath id="clip0_26:3968">
<rect width="587" height="433" fill="white"/>
</clipPath>
</defs>
</svg>
