<svg width="375" height="1581" viewBox="0 0 375 1581" fill="none" xmlns="http://www.w3.org/2000/svg">
<g filter="url(#filter0_dd_95:3660)">
<path d="M0 816H378V1500.93C378 1508.7 371.7 1515 363.929 1515H14.0708C6.29972 1515 0 1508.7 0 1500.93V816Z" fill="#26368B"/>
</g>
<path d="M0 14C0 6.26799 6.26801 0 14 0H361C368.732 0 375 6.26801 375 14V816H0V14Z" fill="#26368B"/>
<path d="M353.876 1105.71C362.417 1096.06 378.359 1102.1 378.359 1114.99V1501.31C378.359 1509.04 372.091 1515.31 364.359 1515.31H22.4455C10.3799 1515.31 3.96528 1501.07 11.9618 1492.03L353.876 1105.71Z" fill="#70122F"/>
<path d="M-19 1515.35L378.859 1077.52L378.859 1112.7L18 1515.35L-19 1515.35Z" fill="white"/>
<defs>
<filter id="filter0_dd_95:3660" x="-37.5221" y="806.619" width="453.044" height="774.044" filterUnits="userSpaceOnUse" color-interpolation-filters="sRGB">
<feFlood flood-opacity="0" result="BackgroundImageFix"/>
<feColorMatrix in="SourceAlpha" type="matrix" values="0 0 0 0 0 0 0 0 0 0 0 0 0 0 0 0 0 0 127 0" result="hardAlpha"/>
<feOffset dy="28.1416"/>
<feGaussianBlur stdDeviation="18.7611"/>
<feColorMatrix type="matrix" values="0 0 0 0 0.0784314 0 0 0 0 0.145098 0 0 0 0 0.247059 0 0 0 0.08 0"/>
<feBlend mode="normal" in2="BackgroundImageFix" result="effect1_dropShadow_95:3660"/>
<feColorMatrix in="SourceAlpha" type="matrix" values="0 0 0 0 0 0 0 0 0 0 0 0 0 0 0 0 0 0 127 0" result="hardAlpha"/>
<feOffset/>
<feGaussianBlur stdDeviation="0.469027"/>
<feColorMatrix type="matrix" values="0 0 0 0 0.0470588 0 0 0 0 0.101961 0 0 0 0 0.294118 0 0 0 0.1 0"/>
<feBlend mode="normal" in2="effect1_dropShadow_95:3660" result="effect2_dropShadow_95:3660"/>
<feBlend mode="normal" in="SourceGraphic" in2="effect2_dropShadow_95:3660" result="shape"/>
</filter>
</defs>
</svg>
