<svg width="130" height="28" viewBox="0 0 130 28" fill="none" xmlns="http://www.w3.org/2000/svg">
<path d="M1 28H12.837C18.4499 28 23 24.4183 23 20H11.163C5.55015 20 1 23.5817 1 28Z" fill="#F22BB2"/>
<path d="M1 8.09524V20C6.52285 20 11 16.3756 11 11.9048V0C5.47715 0 1 3.62436 1 8.09524Z" fill="#8C30F5"/>
<path d="M34 0H22.163C16.5502 0 12 3.58172 12 8H23.837C29.4499 8 34 4.41828 34 0Z" fill="#FE9A22"/>
<path d="M34 18.9048V7C28.4772 7 24 10.6244 24 15.0952V27C29.5228 27 34 23.3756 34 18.9048Z" fill="#2EC5CE"/>
<path d="M50.9055 6.90909H48.1378V20H50.9055V6.90909ZM55.8546 14.3239C55.861 13.0582 56.6152 12.3168 57.7147 12.3168C58.8077 12.3168 59.4661 13.0327 59.4597 14.2344V20H62.1827V13.7486C62.1827 11.4602 60.8404 10.054 58.7949 10.054C57.3375 10.054 56.2828 10.7699 55.8418 11.9141H55.7267V10.1818H53.1316V20H55.8546V14.3239ZM68.7521 23.8864C71.5582 23.8864 73.5526 22.608 73.5526 20.0959V10.1818H70.8487V11.831H70.7464C70.3821 11.032 69.5831 10.054 67.9403 10.054C65.7862 10.054 63.9645 11.7287 63.9645 15.0717C63.9645 18.3381 65.7351 19.8594 67.9467 19.8594C69.5128 19.8594 70.3885 19.0732 70.7464 18.2614H70.8615V20.0575C70.8615 21.4062 69.9986 21.9304 68.8161 21.9304C67.6143 21.9304 67.0071 21.4062 66.7834 20.8118L64.2649 21.1506C64.5909 22.6974 66.1058 23.8864 68.7521 23.8864ZM68.8097 17.8139C67.4737 17.8139 66.745 16.7528 66.745 15.0589C66.745 13.3906 67.4609 12.2209 68.8097 12.2209C70.1328 12.2209 70.8743 13.3395 70.8743 15.0589C70.8743 16.7912 70.12 17.8139 68.8097 17.8139ZM80.1939 20.1918C82.6229 20.1918 84.2592 19.0092 84.6428 17.1875L82.1243 17.0213C81.8494 17.7692 81.1463 18.1591 80.2386 18.1591C78.8771 18.1591 78.0142 17.2578 78.0142 15.794V15.7876H84.7003V15.0398C84.7003 11.7031 82.6804 10.054 80.0852 10.054C77.196 10.054 75.3232 12.1058 75.3232 15.1357C75.3232 18.2486 77.1705 20.1918 80.1939 20.1918ZM78.0142 14.1001C78.0717 12.9815 78.9219 12.0866 80.13 12.0866C81.3125 12.0866 82.1307 12.9304 82.1371 14.1001H78.0142ZM89.2003 14.3239C89.2067 13.0582 89.9609 12.3168 91.0604 12.3168C92.1534 12.3168 92.8118 13.0327 92.8054 14.2344V20H95.5284V13.7486C95.5284 11.4602 94.1861 10.054 92.1406 10.054C90.6832 10.054 89.6286 10.7699 89.1875 11.9141H89.0724V10.1818H86.4773V20H89.2003V14.3239ZM101.292 20.1598C102.878 20.1598 103.702 19.2457 104.079 18.4276H104.194V20H106.879V10.1818H104.162V11.831H104.079C103.715 11.032 102.929 10.054 101.286 10.054C99.1319 10.054 97.3102 11.7287 97.3102 15.1037C97.3102 18.3892 99.0552 20.1598 101.292 20.1598ZM102.155 17.9929C100.819 17.9929 100.091 16.804 100.091 15.0909C100.091 13.3906 100.807 12.2209 102.155 12.2209C103.479 12.2209 104.22 13.3395 104.22 15.0909C104.22 16.8423 103.466 17.9929 102.155 17.9929ZM109.118 6.90909V17.424C109.124 19.2969 110.096 20.1406 112.186 20.0639C112.864 20.032 113.234 19.9361 113.516 19.8466L113.081 17.8651C112.972 17.9034 112.844 17.9354 112.57 17.9418C112.045 17.9482 111.847 17.6797 111.841 17.0597V6.90909H109.118ZM114.532 20H117.255V10.1818H114.532V20ZM115.9 8.91619C116.712 8.91619 117.376 8.29616 117.376 7.53551C117.376 6.78125 116.712 6.16122 115.9 6.16122C115.094 6.16122 114.43 6.78125 114.43 7.53551C114.43 8.29616 115.094 8.91619 115.9 8.91619Z" fill="black"/>
</svg>
