<svg width="38" height="40" viewBox="0 0 38 40" fill="none" xmlns="http://www.w3.org/2000/svg">
<g filter="url(#filter0_d_165:3267)">
<rect x="2" y="0.5" width="35" height="35" rx="17.5" fill="#F7FAFC"/>
</g>
<path fill-rule="evenodd" clip-rule="evenodd" d="M10.5 10.4203C10.5 10.0436 10.6496 9.68234 10.916 9.41599C11.1823 9.14964 11.5436 9 11.9203 9H26.0782C26.2649 8.9997 26.4497 9.03621 26.6223 9.10746C26.7948 9.17871 26.9516 9.28329 27.0837 9.41522C27.2158 9.54714 27.3205 9.70382 27.3919 9.87628C27.4634 10.0487 27.5001 10.2336 27.5 10.4203V24.5782C27.5002 24.7649 27.4636 24.9498 27.3923 25.1224C27.3209 25.2949 27.2163 25.4517 27.0843 25.5837C26.9523 25.7158 26.7956 25.8205 26.6231 25.892C26.4506 25.9634 26.2657 26.0001 26.079 26H11.9203C11.7337 26 11.5489 25.9632 11.3766 25.8918C11.2042 25.8204 11.0476 25.7157 10.9157 25.5837C10.7838 25.4518 10.6792 25.2951 10.6079 25.1227C10.5366 24.9503 10.4999 24.7655 10.5 24.579V10.4203ZM17.2289 15.4816H19.5309V16.6376C19.8631 15.9731 20.7131 15.375 21.9905 15.375C24.4392 15.375 25.0195 16.6987 25.0195 19.1274V23.6262H22.5414V19.6806C22.5414 18.2975 22.2091 17.517 21.3653 17.517C20.1946 17.517 19.7078 18.3585 19.7078 19.6806V23.6262H17.2289V15.4816ZM12.9789 23.5203H15.4578V15.375H12.9789V23.5195V23.5203ZM15.8125 12.7184C15.8172 12.9306 15.7794 13.1417 15.7014 13.3391C15.6234 13.5366 15.5068 13.7164 15.3583 13.8682C15.2099 14.02 15.0326 14.1405 14.8369 14.2229C14.6412 14.3052 14.431 14.3476 14.2188 14.3476C14.0065 14.3476 13.7963 14.3052 13.6006 14.2229C13.4049 14.1405 13.2276 14.02 13.0792 13.8682C12.9307 13.7164 12.8141 13.5366 12.7361 13.3391C12.6581 13.1417 12.6203 12.9306 12.625 12.7184C12.6342 12.3018 12.8061 11.9053 13.104 11.6139C13.4019 11.3225 13.802 11.1593 14.2188 11.1593C14.6355 11.1593 15.0356 11.3225 15.3335 11.6139C15.6314 11.9053 15.8033 12.3018 15.8125 12.7184Z" fill="url(#paint0_linear_165:3267)"/>
<defs>
<filter id="filter0_d_165:3267" x="0" y="0.5" width="39" height="39" filterUnits="userSpaceOnUse" color-interpolation-filters="sRGB">
<feFlood flood-opacity="0" result="BackgroundImageFix"/>
<feColorMatrix in="SourceAlpha" type="matrix" values="0 0 0 0 0 0 0 0 0 0 0 0 0 0 0 0 0 0 127 0" result="hardAlpha"/>
<feOffset dy="2"/>
<feGaussianBlur stdDeviation="1"/>
<feColorMatrix type="matrix" values="0 0 0 0 0.898039 0 0 0 0 0.913725 0 0 0 0 0.94902 0 0 0 1 0"/>
<feBlend mode="normal" in2="BackgroundImageFix" result="effect1_dropShadow_165:3267"/>
<feBlend mode="normal" in="SourceGraphic" in2="effect1_dropShadow_165:3267" result="shape"/>
</filter>
<linearGradient id="paint0_linear_165:3267" x1="27.5" y1="26" x2="7.09673" y2="15.8231" gradientUnits="userSpaceOnUse">
<stop stop-color="#2E46C5"/>
<stop offset="1" stop-color="#0059A8"/>
</linearGradient>
</defs>
</svg>
