<svg width="115" height="32" viewBox="0 0 115 32" fill="none" xmlns="http://www.w3.org/2000/svg">
<path d="M1 32H11.7609C16.8635 32 21 27.9706 21 23H10.2391C5.1365 23 1 27.0294 1 32Z" fill="#F22BB2"/>
<path d="M1 9.30952V23C5.97056 23 10 18.832 10 13.6905V0C5.02944 0 1 4.16802 1 9.30952Z" fill="#8C30F5"/>
<path d="M31 0H20.2391C15.1365 0 11 4.02944 11 9H21.7609C26.8635 9 31 4.97056 31 0Z" fill="#FE9A22"/>
<path d="M31 21.6905V8C26.0294 8 22 12.168 22 17.3095V31C26.9706 31 31 26.832 31 21.6905Z" fill="#2EC5CE"/>
<path d="M47.9055 9.90909H45.1378V23H47.9055V9.90909ZM52.8546 17.3239C52.861 16.0582 53.6152 15.3168 54.7147 15.3168C55.8077 15.3168 56.4661 16.0327 56.4597 17.2344V23H59.1827V16.7486C59.1827 14.4602 57.8404 13.054 55.7949 13.054C54.3375 13.054 53.2828 13.7699 52.8418 14.9141H52.7267V13.1818H50.1316V23H52.8546V17.3239ZM65.7521 26.8864C68.5582 26.8864 70.5526 25.608 70.5526 23.0959V13.1818H67.8487V14.831H67.7464C67.3821 14.032 66.5831 13.054 64.9403 13.054C62.7862 13.054 60.9645 14.7287 60.9645 18.0717C60.9645 21.3381 62.7351 22.8594 64.9467 22.8594C66.5128 22.8594 67.3885 22.0732 67.7464 21.2614H67.8615V23.0575C67.8615 24.4062 66.9986 24.9304 65.8161 24.9304C64.6143 24.9304 64.0071 24.4062 63.7834 23.8118L61.2649 24.1506C61.5909 25.6974 63.1058 26.8864 65.7521 26.8864ZM65.8097 20.8139C64.4737 20.8139 63.745 19.7528 63.745 18.0589C63.745 16.3906 64.4609 15.2209 65.8097 15.2209C67.1328 15.2209 67.8743 16.3395 67.8743 18.0589C67.8743 19.7912 67.12 20.8139 65.8097 20.8139ZM77.1939 23.1918C79.6229 23.1918 81.2592 22.0092 81.6428 20.1875L79.1243 20.0213C78.8494 20.7692 78.1463 21.1591 77.2386 21.1591C75.8771 21.1591 75.0142 20.2578 75.0142 18.794V18.7876H81.7003V18.0398C81.7003 14.7031 79.6804 13.054 77.0852 13.054C74.196 13.054 72.3232 15.1058 72.3232 18.1357C72.3232 21.2486 74.1705 23.1918 77.1939 23.1918ZM75.0142 17.1001C75.0717 15.9815 75.9219 15.0866 77.13 15.0866C78.3125 15.0866 79.1307 15.9304 79.1371 17.1001H75.0142ZM86.2003 17.3239C86.2067 16.0582 86.9609 15.3168 88.0604 15.3168C89.1534 15.3168 89.8118 16.0327 89.8054 17.2344V23H92.5284V16.7486C92.5284 14.4602 91.1861 13.054 89.1406 13.054C87.6832 13.054 86.6286 13.7699 86.1875 14.9141H86.0724V13.1818H83.4773V23H86.2003V17.3239ZM98.2924 23.1598C99.8777 23.1598 100.702 22.2457 101.079 21.4276H101.194V23H103.879V13.1818H101.162V14.831H101.079C100.715 14.032 99.9288 13.054 98.286 13.054C96.1319 13.054 94.3102 14.7287 94.3102 18.1037C94.3102 21.3892 96.0552 23.1598 98.2924 23.1598ZM99.1554 20.9929C97.8194 20.9929 97.0907 19.804 97.0907 18.0909C97.0907 16.3906 97.8066 15.2209 99.1554 15.2209C100.479 15.2209 101.22 16.3395 101.22 18.0909C101.22 19.8423 100.466 20.9929 99.1554 20.9929ZM106.118 9.90909V20.424C106.124 22.2969 107.096 23.1406 109.186 23.0639C109.864 23.032 110.234 22.9361 110.516 22.8466L110.081 20.8651C109.972 20.9034 109.844 20.9354 109.57 20.9418C109.045 20.9482 108.847 20.6797 108.841 20.0597V9.90909H106.118ZM111.532 23H114.255V13.1818H111.532V23ZM112.9 11.9162C113.712 11.9162 114.376 11.2962 114.376 10.5355C114.376 9.78125 113.712 9.16122 112.9 9.16122C112.094 9.16122 111.43 9.78125 111.43 10.5355C111.43 11.2962 112.094 11.9162 112.9 11.9162Z" fill="white"/>
</svg>
