<svg width="39" height="40" viewBox="0 0 39 40" fill="none" xmlns="http://www.w3.org/2000/svg">
<g filter="url(#filter0_d_165:3264)">
<g filter="url(#filter1_d_165:3264)">
<rect x="2" y="0.5" width="35" height="35" rx="17.5" fill="#F7FAFC"/>
</g>
<path fill-rule="evenodd" clip-rule="evenodd" d="M22.895 19.1873C22.6829 19.0817 21.643 18.5731 21.4494 18.5023C21.2558 18.4322 21.1149 18.3975 20.9733 18.6086C20.8324 18.8182 20.4274 19.2928 20.3042 19.4331C20.1804 19.574 20.0573 19.591 19.8459 19.4862C19.6345 19.3799 18.9526 19.1582 18.1448 18.4414C17.5164 17.8832 17.0914 17.194 16.9683 16.9829C16.8452 16.7726 16.9548 16.6585 17.0608 16.5537C17.1562 16.4595 17.2722 16.3079 17.3783 16.1854C17.4843 16.0621 17.5192 15.9743 17.5897 15.8333C17.6608 15.6931 17.6252 15.5705 17.5719 15.465C17.5192 15.3594 17.0964 14.3231 16.9199 13.9017C16.7484 13.4916 16.574 13.5475 16.4445 13.5404C16.3206 13.5348 16.1797 13.5334 16.0388 13.5334C15.8979 13.5334 15.6687 13.5858 15.4751 13.7969C15.2808 14.0072 14.7349 14.5165 14.7349 15.5528C14.7349 16.5884 15.4922 17.5893 15.5982 17.7302C15.7043 17.8705 17.0893 19.9969 19.211 20.9085C19.7163 21.1253 20.1099 21.2549 20.4167 21.3512C20.9235 21.512 21.3847 21.4893 21.7491 21.4348C22.1548 21.3746 23.0003 20.9255 23.1768 20.4339C23.3526 19.9423 23.3526 19.5209 23.3 19.4331C23.2473 19.3452 23.1064 19.2928 22.8943 19.1873H22.895ZM19.0359 24.431H19.0331C17.7729 24.4313 16.5358 24.0941 15.4516 23.455L15.1954 23.3034L12.532 23.999L13.2431 21.415L13.0758 21.1501C12.3713 20.034 11.9984 18.7423 12.0004 17.4242C12.0018 13.5638 15.1576 10.4231 19.0388 10.4231C20.9178 10.4231 22.6843 11.1527 24.0124 12.4758C24.6675 13.1251 25.1867 13.8971 25.54 14.7474C25.8933 15.5976 26.0737 16.5091 26.0708 17.4292C26.0694 21.2896 22.9135 24.431 19.0359 24.431ZM25.0231 11.4707C24.2389 10.6851 23.3058 10.0622 22.278 9.63809C21.2501 9.21399 20.1479 8.99711 19.0352 9.00003C14.3705 9.00003 10.5726 12.779 10.5712 17.4235C10.5705 18.9082 10.9598 20.3574 11.7007 21.6345L10.5 26L14.9868 24.8284C16.228 25.5014 17.6189 25.8541 19.0324 25.8541H19.0359C23.7007 25.8541 27.4985 22.0751 27.5 17.4299C27.5034 16.323 27.2863 15.2263 26.8611 14.2035C26.436 13.1806 25.8113 12.2517 25.0231 11.4707Z" fill="url(#paint0_linear_165:3264)"/>
</g>
<defs>
<filter id="filter0_d_165:3264" x="2" y="0.5" width="35" height="36" filterUnits="userSpaceOnUse" color-interpolation-filters="sRGB">
<feFlood flood-opacity="0" result="BackgroundImageFix"/>
<feColorMatrix in="SourceAlpha" type="matrix" values="0 0 0 0 0 0 0 0 0 0 0 0 0 0 0 0 0 0 127 0" result="hardAlpha"/>
<feOffset dy="1"/>
<feColorMatrix type="matrix" values="0 0 0 0 0.898039 0 0 0 0 0.913725 0 0 0 0 0.94902 0 0 0 1 0"/>
<feBlend mode="normal" in2="BackgroundImageFix" result="effect1_dropShadow_165:3264"/>
<feBlend mode="normal" in="SourceGraphic" in2="effect1_dropShadow_165:3264" result="shape"/>
</filter>
<filter id="filter1_d_165:3264" x="0" y="0.5" width="39" height="39" filterUnits="userSpaceOnUse" color-interpolation-filters="sRGB">
<feFlood flood-opacity="0" result="BackgroundImageFix"/>
<feColorMatrix in="SourceAlpha" type="matrix" values="0 0 0 0 0 0 0 0 0 0 0 0 0 0 0 0 0 0 127 0" result="hardAlpha"/>
<feOffset dy="2"/>
<feGaussianBlur stdDeviation="1"/>
<feColorMatrix type="matrix" values="0 0 0 0 0.898039 0 0 0 0 0.913725 0 0 0 0 0.94902 0 0 0 1 0"/>
<feBlend mode="normal" in2="BackgroundImageFix" result="effect1_dropShadow_165:3264"/>
<feBlend mode="normal" in="SourceGraphic" in2="effect1_dropShadow_165:3264" result="shape"/>
</filter>
<linearGradient id="paint0_linear_165:3264" x1="27.5" y1="26" x2="7.09673" y2="15.8231" gradientUnits="userSpaceOnUse">
<stop stop-color="#2E46C5"/>
<stop offset="1" stop-color="#0059A8"/>
</linearGradient>
</defs>
</svg>
